<?xml version="1.0" encoding="UTF-8"?>
<svg xmlns="http://www.w3.org/2000/svg" xmlns:xlink="http://www.w3.org/1999/xlink" width="24px" height="24px" viewBox="0 0 24 24" version="1.1">
<g id="surface1">
<path style=" stroke:none;fill-rule:nonzero;fill:rgb(0%,0%,0%);fill-opacity:1;" d="M 10.09375 2.144531 C 9.285156 2.523438 8.332031 3.382812 8.09375 4.046875 C 7.429688 5.761719 7.808594 10.429688 8.714844 12.238281 C 10.09375 14.855469 9.808594 15.570312 6.90625 16.953125 C 4.144531 18.285156 2.855469 19.570312 2.855469 21.046875 C 2.855469 21.855469 3.570312 21.90625 12.382812 21.90625 C 20.714844 21.90625 21.90625 21.808594 21.90625 21.144531 C 21.90625 19.667969 20.855469 18.523438 18.09375 17.144531 C 14.90625 15.523438 14.667969 14.90625 16.09375 12 C 16.953125 10.238281 17.382812 5.855469 16.855469 4.191406 C 16.570312 3.285156 13.429688 1.429688 12.285156 1.429688 C 11.953125 1.476562 10.953125 1.761719 10.09375 2.144531 Z M 14.285156 3.09375 C 15.046875 3.523438 15.808594 4.285156 15.90625 4.90625 C 16.238281 6.476562 16 10.476562 15.617188 10.476562 C 15.382812 10.476562 15.238281 10.855469 15.238281 11.332031 C 15.238281 11.808594 15.046875 12.382812 14.808594 12.617188 C 14.570312 12.90625 14.285156 13.714844 14.191406 14.523438 C 14.046875 15.808594 13.855469 15.953125 12.382812 15.953125 C 10.953125 15.953125 10.714844 15.761719 10.570312 14.761719 C 10.476562 14.09375 10.046875 12.808594 9.617188 11.90625 C 8.714844 9.953125 8.382812 5.476562 9.09375 4.191406 C 10 2.476562 12.191406 2 14.285156 3.09375 Z M 17.714844 18 C 18.90625 18.523438 20.144531 19.429688 20.429688 19.953125 C 21 20.953125 20.953125 20.953125 12.382812 20.953125 C 3.855469 20.953125 3.761719 20.953125 4.285156 20 C 4.570312 19.429688 5.808594 18.523438 7.046875 17.953125 C 9.953125 16.523438 14.476562 16.570312 17.714844 18 Z M 17.714844 18 "/>
</g>
</svg>
