<?xml version="1.0" encoding="UTF-8"?>
<svg xmlns="http://www.w3.org/2000/svg" xmlns:xlink="http://www.w3.org/1999/xlink" width="80px" height="40px" viewBox="0 0 80 40" version="1.1">
<g id="surface1">
<path style=" stroke:none;fill-rule:nonzero;fill:rgb(95.686275%,34.509804%,0%);fill-opacity:1;" d="M 10.910156 5.207031 L 10.910156 15.222656 C 10.910156 15.222656 14.441406 15.222656 16.328125 15.078125 C 17.8125 14.816406 18.085938 14.675781 18.359375 13.191406 L 18.90625 11.015625 L 20.523438 11.015625 L 20.25 15.769531 L 20.390625 20.636719 L 18.761719 20.636719 L 18.359375 18.738281 C 17.957031 17.382812 17.410156 17.109375 16.328125 16.976562 C 14.976562 16.835938 10.910156 16.835938 10.910156 16.835938 L 10.910156 25.234375 C 10.910156 26.847656 11.730469 27.539062 13.621094 27.539062 L 19.308594 27.539062 C 21.066406 27.539062 22.824219 27.394531 23.921875 24.828125 L 25.390625 21.574219 L 26.757812 21.574219 C 26.613281 22.25 25.9375 28.214844 25.808594 29.558594 C 25.808594 29.558594 20.664062 29.425781 18.503906 29.425781 L 8.75 29.425781 L 2.929688 29.558594 L 2.929688 28.085938 L 4.816406 27.667969 C 6.183594 27.394531 6.589844 26.992188 6.589844 25.910156 C 6.589844 25.910156 6.730469 22.25 6.730469 16.15625 C 6.730469 10.078125 6.589844 6.417969 6.589844 6.417969 C 6.589844 5.203125 6.183594 4.933594 4.816406 4.660156 L 2.929688 4.257812 L 2.929688 2.773438 L 8.621094 2.890625 L 19.453125 2.890625 C 21.613281 2.890625 25.261719 2.5 25.261719 2.5 C 25.261719 2.5 25.128906 4.792969 24.988281 10.207031 L 23.5 10.207031 L 22.953125 8.308594 C 22.421875 5.871094 21.613281 4.660156 20.117188 4.660156 L 11.601562 4.660156 C 10.910156 4.660156 10.910156 4.792969 10.910156 5.207031 Z M 32.839844 6.277344 L 34.464844 6.277344 L 34.464844 11.964844 L 40.027344 11.691406 L 39.753906 14.273438 L 34.335938 13.855469 L 34.335938 23.882812 C 34.335938 26.71875 35.285156 27.8125 36.914062 27.8125 C 38.386719 27.8125 39.480469 26.992188 39.882812 26.316406 L 40.691406 27.265625 C 39.882812 29.15625 37.589844 30.105469 35.417969 30.105469 C 32.722656 30.105469 30.535156 28.488281 30.535156 25.378906 L 30.535156 13.996094 L 27.304688 13.996094 L 27.304688 12.644531 C 30.011719 12.371094 32.03125 10.742188 32.839844 6.277344 Z M 44.492188 23.738281 L 45.570312 26.316406 C 45.976562 27.394531 46.925781 28.488281 49.085938 28.488281 C 51.390625 28.488281 52.339844 27.265625 52.339844 25.78125 C 52.339844 21.171875 43.265625 22.527344 43.265625 16.300781 C 43.265625 12.785156 46.105469 11.144531 49.761719 11.144531 C 51.390625 11.144531 53.828125 11.417969 55.050781 11.964844 C 54.777344 13.316406 54.632812 15.078125 54.632812 16.433594 L 53.292969 16.5625 L 52.339844 13.851562 C 52.066406 13.191406 50.976562 12.640625 49.632812 12.640625 C 48.003906 12.640625 46.378906 13.316406 46.378906 15.078125 C 46.378906 19.269531 55.726562 18.332031 55.726562 24.558594 C 55.726562 28.085938 52.613281 29.972656 48.8125 29.972656 C 45.976562 29.972656 43.125 28.878906 43.125 28.878906 C 43.398438 27.265625 43.265625 25.507812 43.125 23.738281 Z M 55.050781 36.730469 C 55.453125 35.246094 55.726562 33.359375 56 31.589844 L 57.488281 31.457031 L 58.035156 34.296875 C 58.164062 34.972656 58.566406 35.519531 59.648438 35.519531 C 61.40625 35.519531 63.710938 34.441406 65.886719 30.648438 C 64.921875 28.34375 62.082031 20.910156 59.503906 15.21875 C 58.828125 13.722656 58.699219 13.589844 57.761719 13.316406 L 57.070312 13.058594 L 57.070312 11.691406 L 61.144531 11.835938 L 66.144531 11.5625 L 66.144531 12.917969 L 64.921875 13.191406 C 63.972656 13.320312 63.578125 13.851562 63.578125 14.402344 C 63.578125 14.546875 63.578125 14.675781 63.710938 14.949219 C 63.96875 15.769531 66.144531 21.851562 67.773438 25.910156 C 69.113281 23.074219 71.691406 16.707031 72.097656 15.625 C 72.238281 15.078125 72.371094 14.949219 72.371094 14.546875 C 72.371094 13.855469 71.964844 13.453125 71.027344 13.191406 L 70.066406 12.917969 L 70.066406 11.5625 L 73.867188 11.691406 L 77.382812 11.5625 L 77.382812 12.917969 L 76.703125 13.449219 C 75.351562 13.996094 75.207031 14.125 74.671875 15.21875 L 68.722656 29.152344 C 65.195312 37.148438 61.535156 37.824219 58.96875 37.824219 C 57.34375 37.824219 56.121094 37.410156 55.050781 36.730469 Z M 55.050781 36.730469 "/>
</g>
</svg>
