<?xml version="1.0" encoding="utf-8"?><svg version="1.1" id="Layer_1" xmlns="http://www.w3.org/2000/svg" xmlns:xlink="http://www.w3.org/1999/xlink" x="0px" y="0px" viewBox="0 0 122.88 121.67" style="enable-background:new 0 0 122.88 121.67" xml:space="preserve"><style type="text/css">.st0{fill-rule:evenodd;clip-rule:evenodd;}</style><g><path class="st0" d="M46.06,83.53h30.75v33.29h34.89V51.4H11.9v65.42h34.16V83.53L46.06,83.53z M38.3,56.05h46.29 c2.24,0,4.07,1.83,4.07,4.07v14c0,2.24-1.83,4.07-4.07,4.07H38.3c-2.24,0-4.07-1.83-4.07-4.07v-14 C34.22,57.88,36.06,56.05,38.3,56.05L38.3,56.05z M51.31,64.43h-3.29v-1.01c0-0.47-0.04-0.77-0.13-0.9 c-0.08-0.13-0.22-0.19-0.42-0.19c-0.21,0-0.37,0.09-0.48,0.26c-0.11,0.17-0.16,0.43-0.16,0.79c0,0.45,0.06,0.8,0.19,1.03 c0.12,0.23,0.45,0.51,1,0.83c1.57,0.94,2.56,1.71,2.97,2.31c0.41,0.6,0.62,1.57,0.62,2.9c0,0.97-0.12,1.69-0.34,2.15 c-0.23,0.46-0.66,0.85-1.32,1.16c-0.65,0.31-1.41,0.47-2.27,0.47c-0.95,0-1.76-0.18-2.43-0.54c-0.67-0.36-1.11-0.82-1.32-1.37 c-0.21-0.56-0.31-1.35-0.31-2.37v-0.89h3.29v1.66c0,0.51,0.05,0.84,0.14,0.99c0.09,0.15,0.26,0.22,0.49,0.22s0.41-0.09,0.53-0.28 c0.11-0.18,0.17-0.46,0.17-0.82c0-0.8-0.11-1.33-0.33-1.57C47.68,69,47.13,68.58,46.25,68c-0.88-0.58-1.46-1.01-1.75-1.27 c-0.28-0.26-0.52-0.63-0.71-1.1c-0.19-0.47-0.28-1.06-0.28-1.79c0-1.04,0.13-1.81,0.4-2.29c0.27-0.48,0.7-0.86,1.29-1.13 c0.59-0.27,1.31-0.41,2.15-0.41c0.92,0,1.7,0.15,2.35,0.45c0.65,0.3,1.08,0.67,1.29,1.13c0.21,0.45,0.32,1.22,0.32,2.3V64.43 L51.31,64.43z M60.87,60.29v13.65h-3.55v-5.73h-1.03v5.73h-3.55V60.29h3.55v4.88h1.03v-4.88H60.87L60.87,60.29z M70.39,68.29 c0,1.37-0.03,2.34-0.1,2.91c-0.06,0.57-0.26,1.09-0.6,1.56s-0.8,0.83-1.38,1.09c-0.58,0.25-1.25,0.38-2.02,0.38 c-0.73,0-1.38-0.12-1.96-0.36c-0.58-0.24-1.05-0.6-1.4-1.07c-0.35-0.48-0.56-1-0.63-1.56c-0.07-0.56-0.1-1.55-0.1-2.95v-2.33 c0-1.37,0.03-2.34,0.1-2.91c0.06-0.57,0.26-1.09,0.6-1.56c0.34-0.47,0.8-0.83,1.38-1.09c0.58-0.25,1.25-0.38,2.02-0.38 c0.73,0,1.38,0.12,1.96,0.36c0.58,0.24,1.05,0.6,1.4,1.07c0.35,0.48,0.56,1,0.63,1.56c0.07,0.56,0.1,1.55,0.1,2.95V68.29 L70.39,68.29z M66.84,63.81c0-0.63-0.03-1.04-0.1-1.22c-0.07-0.18-0.21-0.26-0.42-0.26c-0.18,0-0.32,0.07-0.42,0.22 c-0.09,0.14-0.14,0.56-0.14,1.27v6.37c0,0.79,0.03,1.28,0.09,1.46c0.06,0.19,0.21,0.28,0.44,0.28c0.24,0,0.39-0.11,0.45-0.32 c0.07-0.21,0.1-0.72,0.1-1.52V63.81L66.84,63.81z M71.73,60.29h3.57c0.97,0,1.71,0.07,2.23,0.23c0.52,0.15,0.91,0.37,1.17,0.66 c0.26,0.29,0.44,0.64,0.53,1.04c0.09,0.41,0.14,1.04,0.14,1.89v1.19c0,0.87-0.09,1.5-0.27,1.9c-0.18,0.4-0.51,0.71-0.99,0.92 c-0.48,0.21-1.11,0.32-1.88,0.32h-0.95v5.5h-3.55V60.29L71.73,60.29z M75.28,62.62v3.48c0.1,0.01,0.19,0.01,0.26,0.01 c0.32,0,0.55-0.08,0.68-0.24c0.12-0.16,0.19-0.49,0.19-1v-1.12c0-0.47-0.07-0.77-0.22-0.91C76.04,62.69,75.74,62.62,75.28,62.62 L75.28,62.62z M7.06,53.72H2.42H0V51.3V36.47v-1.56l1.44-0.64L59.12,0.44L60.1,0l0.97,0.43l60.36,34.8l1.45,0.64v1.57V51.3v2.42 h-2.42h-3.91v65.53v2.42h-2.42H9.48H7.06v-2.42V53.72L7.06,53.72z"/></g></svg>